<svg width="195" height="27" viewBox="0 0 195 27" fill="none" xmlns="http://www.w3.org/2000/svg">
<path d="M-1.64509e-05 26.5398V0.357976H3.17044V13.3466H3.47726L15.2386 0.357976H19.3807L8.38635 12.1705L19.3807 26.5398H15.5454L6.44317 14.3693L3.17044 18.0512V26.5398H-1.64509e-05ZM34.6832 26.5398H31.3594L40.973 0.357976H44.2457L53.8594 26.5398H50.5355L42.7116 4.50002H42.5071L34.6832 26.5398ZM35.9105 16.3125H49.3082V19.125H35.9105V16.3125ZM68.0625 26.5398V0.357976H83.7613V3.17048H71.2329V12.0171H82.5852V14.8296H71.2329V26.5398H68.0625ZM116.498 0.357976H119.669V17.6932C119.669 19.483 119.247 21.081 118.403 22.4872C117.568 23.885 116.387 24.9887 114.862 25.7983C113.336 26.5995 111.547 27 109.493 27C107.439 27 105.649 26.5995 104.123 25.7983C102.598 24.9887 101.413 23.885 100.569 22.4872C99.734 21.081 99.3164 19.483 99.3164 17.6932V0.357976H102.487V17.4375C102.487 18.7159 102.768 19.8537 103.331 20.8509C103.893 21.8395 104.694 22.6193 105.734 23.1904C106.782 23.7529 108.035 24.0341 109.493 24.0341C110.95 24.0341 112.203 23.7529 113.251 23.1904C114.299 22.6193 115.1 21.8395 115.654 20.8509C116.217 19.8537 116.498 18.7159 116.498 17.4375V0.357976ZM156.886 0.357976V26.5398H153.818L139.551 5.98298H139.295V26.5398H136.125V0.357976H139.193L153.511 20.9659H153.767V0.357976H156.886ZM191.253 8.53979C190.972 7.679 190.601 6.90769 190.141 6.22587C189.689 5.53553 189.148 4.94746 188.517 4.46167C187.895 3.97587 187.188 3.60513 186.395 3.34945C185.603 3.09377 184.733 2.96593 183.787 2.96593C182.236 2.96593 180.826 3.3665 179.556 4.16764C178.286 4.96877 177.276 6.14917 176.526 7.70883C175.776 9.26849 175.401 11.1818 175.401 13.4489C175.401 15.7159 175.78 17.6293 176.539 19.1889C177.297 20.7486 178.324 21.929 179.62 22.7301C180.915 23.5313 182.372 23.9318 183.992 23.9318C185.492 23.9318 186.813 23.6122 187.955 22.973C189.105 22.3253 190 21.4134 190.64 20.2372C191.287 19.0526 191.611 17.6591 191.611 16.0568L192.583 16.2614H184.708V13.4489H194.679V16.2614C194.679 18.4176 194.219 20.2926 193.299 21.8864C192.387 23.4801 191.125 24.7159 189.515 25.5938C187.912 26.4631 186.071 26.8977 183.992 26.8977C181.674 26.8977 179.637 26.3523 177.881 25.2614C176.134 24.1705 174.77 22.6193 173.79 20.608C172.819 18.5966 172.333 16.2102 172.333 13.4489C172.333 11.3779 172.61 9.51565 173.164 7.86224C173.726 6.20031 174.519 4.78553 175.542 3.61792C176.564 2.45031 177.774 1.55542 179.172 0.93326C180.57 0.311101 182.108 2.12193e-05 183.787 2.12193e-05C185.168 2.12193e-05 186.455 0.208828 187.648 0.626441C188.85 1.03553 189.919 1.61934 190.857 2.37786C191.803 3.12786 192.591 4.02701 193.222 5.07531C193.853 6.11508 194.287 7.26991 194.526 8.53979H191.253Z" fill="white"/>
</svg>
